<svg width="32" height="32" viewBox="0 0 32 32" fill="none" xmlns="http://www.w3.org/2000/svg">
<rect x="2" y="2" width="7" height="28" fill="#9AB2E9"/>
<path d="M19.8901 10.4531H23C22.6649 11.8177 21.9555 12.9167 20.8717 13.75C19.788 14.5833 18.5393 15 17.1257 15C15.4293 15 13.9843 14.4193 12.7906 13.2578C11.5969 12.0964 11 10.6719 11 8.98438C11 7.29688 11.5916 5.8776 12.7749 4.72656C13.9581 3.57552 15.3979 3 17.0942 3C18.1518 3 19.1257 3.23438 20.0157 3.70312C20.9058 4.17188 21.6387 4.84375 22.2147 5.71875C22.6335 6.34375 22.8953 6.97396 23 7.60938H19.8901C19.6597 7.00521 19.2932 6.51823 18.7906 6.14844C18.288 5.77865 17.7173 5.59375 17.0785 5.59375C16.1675 5.59375 15.4215 5.92448 14.8403 6.58594C14.2592 7.2474 13.9686 8.04167 13.9686 8.96875C13.9686 9.89583 14.2592 10.7005 14.8403 11.3828C15.4215 12.0651 16.1728 12.4062 17.0942 12.4062C17.7225 12.4062 18.2775 12.2292 18.7592 11.875C19.2408 11.5208 19.6178 11.0469 19.8901 10.4531Z" fill="#9AB2E9"/>
<path d="M22 17V29H19.3718L14.8526 21.7027L14.8205 21.7189L14.9006 29H12V17H14.6122L19.1955 24.5405L19.2276 24.5081L19.0994 17H22Z" fill="#9AB2E9"/>
</svg>
